<?xml version="1.0" encoding="utf-8"?>
<!-- Generator: Adobe Illustrator 21.0.0, SVG Export Plug-In . SVG Version: 6.00 Build 0)  -->
<svg version="1.1" id="Layer_1" xmlns="http://www.w3.org/2000/svg" xmlns:xlink="http://www.w3.org/1999/xlink" x="0px" y="0px"
	 viewBox="0 0 512 512" style="enable-background:new 0 0 512 512;" xml:space="preserve">
<g>
	<path d="M256,0C114.8,0,0,114.8,0,256s114.8,256,256,256s256-114.8,256-256S397.2,0,256,0z M256,42.7
		c118.1,0,213.3,95.3,213.3,213.3S374.1,469.3,256,469.3S42.7,374.1,42.7,256S137.9,42.7,256,42.7z M170.7,109.3v293.3l32-18.7
		l192-109.3l32-18.7l-32-18.7L202.7,128L170.7,109.3z M213.3,182.7L340.7,256l-127.3,73.3V182.7H213.3z"/>
</g>
</svg>
